<svg width="116" height="87" viewBox="0 0 116 87" fill="none" xmlns="http://www.w3.org/2000/svg">
<path d="M57.5 19C40.1316 19 26 33.1316 26 50.5C26 67.8684 40.1316 82 57.5 82C74.8684 82 89 67.8684 89 50.5C89 33.1316 74.8684 19 57.5 19ZM75.1053 42.2105L54.9737 62.1842C53.7895 63.3684 51.8947 63.4474 50.6316 62.2632L39.9737 52.5526C38.7105 51.3684 38.6316 49.3947 39.7368 48.1316C40.9211 46.8684 42.8947 46.7895 44.1579 47.9737L52.6053 55.7105L70.6053 37.7105C71.8684 36.4474 73.8421 36.4474 75.1053 37.7105C76.3684 38.9737 76.3684 40.9474 75.1053 42.2105Z" fill="#219653"/>
<path d="M10.7597 61.9361H8.14302L7.34089 59.3641C7.15613 58.7717 6.64999 58.3892 6.05109 58.3892C6.05048 58.3892 6.04987 58.3892 6.04927 58.3892C5.44961 58.3899 4.94356 58.7739 4.76002 59.3674L3.96549 61.9361H1.35886C0.759405 61.9361 0.252958 62.3193 0.0685562 62.9123C-0.115846 63.5052 0.0790819 64.1241 0.565085 64.4888L2.67994 66.0762L1.87133 68.656C1.68566 69.2483 1.87902 69.8675 2.36381 70.2335C2.60595 70.4163 2.88331 70.5076 3.16068 70.5076C3.4387 70.5076 3.71667 70.4158 3.95911 70.2322L6.06931 68.6338L8.16882 70.2202C8.65376 70.5866 9.28009 70.5862 9.76463 70.2192C10.2491 69.8523 10.4414 69.2325 10.2545 68.6404L9.44577 66.0775L11.5557 64.4871C12.0405 64.1217 12.2343 63.503 12.0496 62.9108C11.8648 62.3187 11.3585 61.9361 10.7597 61.9361ZM10.9616 63.6353L8.55281 65.451C8.37473 65.5852 8.3005 65.8236 8.36901 66.0409L9.29285 68.9685C9.36329 69.1916 9.22944 69.3229 9.16861 69.3689C9.10784 69.4149 8.94661 69.5072 8.76383 69.3692L6.36645 67.5577C6.18888 67.4235 5.94841 67.4236 5.77094 67.558L3.36314 69.3818C3.18061 69.52 3.01939 69.4281 2.95851 69.3821C2.89769 69.3362 2.76364 69.2052 2.83357 68.982L3.75659 66.0373C3.82476 65.8199 3.75001 65.5816 3.57168 65.4477L1.15751 63.6357C0.974372 63.4982 1.00843 63.3102 1.03155 63.2358C1.05473 63.1614 1.13297 62.9882 1.35886 62.9882H4.33439C4.55422 62.9882 4.74884 62.8407 4.81614 62.6231L5.72358 59.6893C5.79275 59.4657 5.97533 59.4413 6.05063 59.4412H6.05109C6.12664 59.4412 6.30871 59.4655 6.37824 59.6885L7.29383 62.6244C7.36148 62.8414 7.55586 62.9882 7.77522 62.9882H10.7598C10.9855 62.9882 11.0638 63.1612 11.087 63.2355C11.11 63.3099 11.1443 63.4976 10.9616 63.6353Z" fill="#E1E7F5"/>
<path d="M87.5942 32.9674C87.7122 33.7129 88.2702 34.2702 89.0159 34.3872C89.1094 34.4019 89.2022 34.4091 89.2938 34.4091C89.9318 34.4091 90.506 34.0602 90.8039 33.4714L92.1874 30.737L95.2252 31.2212C95.9703 31.34 96.6722 30.9825 97.0147 30.3111C97.3573 29.6395 97.2343 28.8611 96.7012 28.3279L94.5171 26.1439L95.9138 23.4072C96.2569 22.7347 96.1334 21.9556 95.5989 21.4225C95.0643 20.8892 94.2851 20.7676 93.6133 21.1123L90.8859 22.5126L88.7092 20.3359C88.1755 19.8023 87.3966 19.6794 86.7245 20.023C86.0526 20.3667 85.6962 21.0701 85.8164 21.8152L86.3073 24.8559L83.5607 26.2524C82.8882 26.5943 82.5301 27.2967 82.6483 28.0419C82.7665 28.7869 83.3243 29.3439 84.0697 29.4609L87.1152 29.9391L87.5942 32.9674ZM87.6471 26.1057C87.9805 25.9361 88.1663 25.5706 88.1067 25.2014L87.5232 21.584L90.1123 24.1731C90.3767 24.4374 90.7813 24.501 91.1139 24.3302L94.3608 22.6638L92.6997 25.9188C92.5301 26.251 92.594 26.6547 92.8577 26.9185L95.4531 29.5145L91.8385 28.9385C91.4688 28.8797 91.104 29.0661 90.9351 29.3999L89.2875 32.6552L88.7174 29.0517C88.6591 28.6829 88.3697 28.3938 88.0009 28.336L84.3799 27.767L87.6471 26.1057Z" fill="#E1E7F5"/>
<path d="M48.7413 0.573159C48.5768 0.127196 48.082 -0.101121 47.6361 0.0635982C47.1901 0.228145 46.962 0.72299 47.1265 1.16887C48.2294 4.1585 47.4869 7.54548 45.2346 9.79767C42.748 12.2843 38.7021 12.2843 36.2156 9.79767C35.2844 8.86658 34.7717 7.62853 34.7717 6.31181C34.7717 4.99509 35.2844 3.75703 36.2156 2.82586C36.9279 2.11346 37.8751 1.7212 38.8826 1.7212C39.89 1.7212 40.8372 2.11355 41.5496 2.82595C42.659 3.93526 42.659 5.74037 41.5497 6.84968C40.7292 7.67009 39.3944 7.67001 38.574 6.84968C38.2378 6.51362 37.6931 6.51362 37.3568 6.84968C37.0208 7.18575 37.0208 7.73068 37.3568 8.06683C38.8482 9.55825 41.275 9.55833 42.7666 8.06683C44.547 6.28634 44.547 3.3893 42.7666 1.6088C41.7291 0.571352 40.3496 0 38.8825 0C37.4153 0 36.0359 0.571352 34.9983 1.6088C33.7421 2.86502 33.0503 4.53527 33.0503 6.31181C33.0503 8.08834 33.7421 9.7586 34.9983 11.0148C36.5774 12.5938 38.6508 13.3833 40.7249 13.383C42.7986 13.3828 44.8729 12.5934 46.4515 11.0148C49.1772 8.2893 50.076 4.19069 48.7413 0.573159Z" fill="#E1E7F5"/>
<path d="M93.6082 78.2192C91.805 78.2192 90.3379 79.6863 90.3379 81.4895C90.3379 83.2927 91.805 84.7598 93.6082 84.7598C95.4114 84.7598 96.8784 83.2927 96.8784 81.4895C96.8784 79.6863 95.4115 78.2192 93.6082 78.2192ZM93.6082 83.0386C92.754 83.0386 92.0591 82.3437 92.0591 81.4895C92.0591 80.6354 92.754 79.9404 93.6082 79.9404C94.4623 79.9404 95.1572 80.6354 95.1572 81.4895C95.1572 82.3437 94.4623 83.0386 93.6082 83.0386Z" fill="#E1E7F5"/>
<path d="M112.9 52.8806C111.393 52.8806 110.168 54.106 110.168 55.6123C110.168 57.1186 111.393 58.3441 112.9 58.3441C114.406 58.3441 115.631 57.1186 115.631 55.6123C115.631 54.106 114.406 52.8806 112.9 52.8806ZM112.9 56.6229C112.342 56.6229 111.889 56.1696 111.889 55.6123C111.889 55.0551 112.343 54.6018 112.9 54.6018C113.457 54.6018 113.91 55.0552 113.91 55.6123C113.91 56.1696 113.457 56.6229 112.9 56.6229Z" fill="#E1E7F5"/>
<path d="M8.77858 26.3709C10.5818 26.3709 12.0489 24.9038 12.0489 23.1006C12.0489 21.2974 10.5818 19.8303 8.77858 19.8303C6.97536 19.8303 5.5083 21.2974 5.5083 23.1006C5.5083 24.9038 6.97536 26.3709 8.77858 26.3709ZM8.77858 21.5515C9.63272 21.5515 10.3277 22.2465 10.3277 23.1006C10.3277 23.9547 9.63272 24.6497 8.77858 24.6497C7.92443 24.6497 7.2295 23.9547 7.2295 23.1006C7.2295 22.2465 7.92452 21.5515 8.77858 21.5515Z" fill="#E1E7F5"/>
<path fill-rule="evenodd" clip-rule="evenodd" d="M75.0506 5.26734C75.0506 4.79203 75.4359 4.40674 75.9112 4.40674C76.3865 4.40674 76.7718 4.79203 76.7718 5.26734V6.41486C76.7718 6.89017 76.3865 7.27546 75.9112 7.27546C75.4359 7.27546 75.0506 6.89017 75.0506 6.41486V5.26734ZM75.0506 11.0047C75.0506 10.5294 75.4359 10.1441 75.9112 10.1441C76.3865 10.1441 76.7718 10.5294 76.7718 11.0047V12.1521C76.7718 12.6274 76.3865 13.0127 75.9112 13.0127C75.4359 13.0127 75.0506 12.6274 75.0506 12.1521V11.0047ZM79.3534 9.57035C79.8287 9.57035 80.214 9.18506 80.214 8.70975C80.214 8.23444 79.8287 7.84915 79.3534 7.84915H78.206C77.7307 7.84915 77.3454 8.23444 77.3454 8.70975C77.3454 9.18506 77.7307 9.57035 78.206 9.57035H79.3534ZM72.4695 9.57035C71.9943 9.57035 71.6089 9.18506 71.6089 8.70975C71.6089 8.23444 71.9943 7.84915 72.4695 7.84915H73.6169C74.0921 7.84915 74.4775 8.23444 74.4775 8.70975C74.4775 9.18506 74.0921 9.57035 73.6169 9.57035H72.4695Z" fill="#E1E7F5"/>
<path d="M22.3607 51.144C22.8974 50.5389 23.1663 49.7609 23.1179 48.9534C23.0894 48.4789 22.6819 48.1175 22.2073 48.1458C21.7329 48.1742 21.3713 48.5819 21.3997 49.0564C21.4428 49.7759 20.8926 50.3962 20.1732 50.4393C19.3657 50.4877 18.6255 50.8476 18.0887 51.4528C17.552 52.058 17.2831 52.8359 17.3315 53.6434C17.3457 53.8807 17.4547 54.0896 17.6195 54.2358C17.7842 54.3819 18.0047 54.4652 18.242 54.451C18.7164 54.4225 19.078 54.0148 19.0496 53.5404C19.0065 52.8209 19.5567 52.2005 20.2761 52.1574C21.0837 52.1091 21.824 51.7492 22.3607 51.144Z" fill="#E1E7F5"/>
<path d="M29.6313 80.4226C27.9068 80.4226 26.5038 81.8256 26.5038 83.5501C26.5038 84.3256 25.8729 84.9564 25.0974 84.9564C24.6222 84.9564 24.2368 85.3417 24.2368 85.817C24.2368 86.2923 24.6222 86.6776 25.0974 86.6776C26.822 86.6776 28.225 85.2746 28.225 83.5501C28.225 82.7746 28.8558 82.1438 29.6313 82.1438C30.1065 82.1438 30.4919 81.7585 30.4919 81.2832C30.4919 80.8079 30.1066 80.4226 29.6313 80.4226Z" fill="#E1E7F5"/>
<path d="M20.9319 37.4573C21.5116 37.4573 22.0798 37.2215 22.4897 36.8117C22.8995 36.4018 23.1352 35.8334 23.1352 35.2539C23.1352 34.6744 22.8997 34.1059 22.4897 33.6961C22.0798 33.2863 21.5136 33.0505 20.9319 33.0505C20.3524 33.0505 19.7839 33.2863 19.3743 33.6961C18.9645 34.1059 18.7285 34.6744 18.7285 35.2539C18.7285 35.8334 18.9643 36.4018 19.3743 36.8117C19.7839 37.2215 20.3524 37.4573 20.9319 37.4573Z" fill="#E1E7F5"/>
</svg>
